<?xml version="1.0" standalone="no"?>
<!DOCTYPE svg PUBLIC "-//W3C//DTD SVG 20010904//EN"
 "http://www.w3.org/TR/2001/REC-SVG-20010904/DTD/svg10.dtd">
<svg version="1.0" xmlns="http://www.w3.org/2000/svg"
 width="300.000000pt" height="300.000000pt" viewBox="0 0 300.000000 300.000000"
 preserveAspectRatio="xMidYMid meet">
<metadata>
Created by potrace 1.10, written by Peter Selinger 2001-2011
</metadata>
<g transform="translate(0.000000,300.000000) scale(0.100000,-0.100000)"
fill="#000000" stroke="none">
<path d="M874 2895 c-7 -18 3 -35 21 -35 18 0 26 25 12 39 -15 15 -27 14 -33
-4z"/>
<path d="M290 2815 c-6 -8 -9 -19 -5 -25 8 -12 32 -13 39 -1 3 5 0 8 -7 7 -6
0 -12 4 -12 9 0 6 6 9 12 9 7 -1 10 2 7 7 -8 13 -20 11 -34 -6z"/>
<path d="M555 2810 c-18 -20 -18 -21 1 -41 36 -35 81 5 48 42 -22 24 -27 24
-49 -1z m41 -5 c13 -13 13 -17 2 -29 -12 -11 -17 -11 -32 0 -15 11 -16 15 -5
28 17 19 17 19 35 1z"/>
<path d="M2758 2769 c-18 -24 -14 -45 11 -59 18 -9 28 -5 50 23 12 15 11 20
-4 37 -23 25 -36 25 -57 -1z m50 -20 c14 0 14 -2 2 -6 -8 -3 -18 -11 -22 -17
-5 -8 -8 -7 -8 2 0 6 -8 13 -17 13 -17 1 -17 2 0 6 9 2 18 12 18 21 1 15 2 15
6 0 2 -10 12 -18 21 -19z"/>
<path d="M461 2670 c-14 -8 -8 -40 7 -40 5 0 15 6 21 14 15 17 -8 39 -28 26z"/>
<path d="M833 2604 c-8 -21 13 -42 28 -27 13 13 5 43 -11 43 -6 0 -13 -7 -17
-16z"/>
<path d="M2313 2384 c-3 -8 1 -22 9 -30 13 -13 16 -13 27 0 7 9 11 23 7 31 -7
20 -35 19 -43 -1z"/>
<path d="M1496 2375 c-3 -8 -11 -15 -19 -15 -16 0 -42 -45 -52 -88 -4 -21 -15
-36 -29 -41 -21 -9 -35 -30 -54 -86 -13 -36 -13 -144 -1 -165 5 -9 9 17 9 70
0 64 6 96 21 130 l20 45 14 -25 c19 -33 19 -45 0 -30 -13 10 -15 9 -15 -8 0
-12 -5 -24 -12 -28 -8 -5 -6 -10 8 -15 17 -7 17 -8 2 -8 -18 -1 -26 -21 -10
-21 15 0 14 -103 0 -112 -9 -5 -7 -8 7 -8 15 0 17 -2 6 -9 -8 -5 -12 -18 -9
-29 4 -14 0 -22 -11 -25 -13 -4 -13 -5 2 -6 11 -1 15 -6 11 -12 -4 -6 -10 -27
-14 -45 -13 -57 17 -41 36 19 13 37 18 94 21 205 3 173 12 220 52 264 23 26
30 29 48 20 27 -15 63 -89 63 -130 0 -40 14 -48 29 -16 6 14 7 23 2 20 -5 -4
-16 18 -25 47 -16 56 -37 87 -73 105 -17 9 -22 9 -27 -3z"/>
<path d="M2815 2340 c-8 -14 3 -30 21 -30 8 0 14 9 14 20 0 21 -24 28 -35 10z"/>
<path d="M527 2333 c-15 -14 -7 -43 12 -43 26 0 36 17 21 35 -14 16 -23 19
-33 8z"/>
<path d="M1501 2327 c-6 -8 -17 -32 -25 -55 l-15 -42 57 0 c31 0 52 4 47 8 -6
4 -17 26 -23 49 -14 48 -25 59 -41 40z"/>
<path d="M2632 2223 c2 -10 10 -18 18 -18 8 0 16 8 18 18 2 12 -3 17 -18 17
-15 0 -20 -5 -18 -17z"/>
<path d="M1449 2193 c0 -16 -5 -89 -10 -163 -6 -74 -11 -147 -12 -162 -1 -14
-6 -24 -11 -21 -4 3 -5 -4 -1 -16 4 -15 3 -21 -7 -19 -7 2 -13 -5 -13 -14 0
-9 -14 -26 -30 -38 l-30 -22 28 26 c15 14 24 26 19 26 -6 0 -27 -19 -48 -43
-22 -24 -32 -34 -24 -23 10 13 3 10 -20 -8 -26 -21 -37 -39 -41 -67 -5 -39 -5
-39 30 -41 20 -1 56 -1 81 0 38 1 40 0 15 -6 -28 -7 -29 -8 -10 -20 19 -11 19
-11 -5 -12 -20 0 -22 -2 -10 -10 13 -9 13 -10 0 -10 -11 0 -12 -2 -2 -8 8 -6
1 -13 -23 -22 l-35 -14 0 -332 c0 -256 3 -334 13 -338 10 -5 10 -7 0 -12 -18
-8 -16 -61 2 -68 13 -5 15 41 17 367 l3 372 5 -440 6 -440 -1 453 0 452 44 0
44 0 -4 -327 c-5 -384 4 -495 14 -178 9 286 9 516 0 513 -5 -2 -9 2 -11 7 -1
6 16 11 38 13 l40 3 0 70 c0 39 4 69 10 69 6 0 10 -30 10 -69 0 -39 -4 -73
-10 -76 -5 -3 -10 -19 -10 -36 0 -16 5 -29 10 -29 6 0 10 16 10 35 0 31 3 35
28 36 15 1 36 0 47 -1 17 -1 15 3 -12 32 -23 24 -33 44 -33 65 0 17 -6 34 -12
36 -7 3 -1 6 13 6 22 1 29 -6 43 -44 10 -24 14 -50 10 -56 -4 -7 -3 -9 3 -6 6
4 14 -1 18 -11 4 -11 -2 -23 -18 -37 l-25 -20 6 -370 c3 -246 8 -359 14 -336
5 18 8 186 6 372 l-3 339 45 1 c31 0 39 3 26 8 -18 7 -18 8 -3 14 23 9 21 27
-3 27 -25 0 -27 20 -2 21 11 1 9 4 -8 10 -23 7 -22 8 10 7 19 0 52 0 73 1 35
1 37 3 37 34 0 32 -29 74 -42 62 -3 -3 -12 5 -21 19 -9 13 -31 34 -49 47 -28
20 -31 20 -18 4 10 -15 7 -14 -12 4 -16 14 -24 29 -21 39 4 9 2 13 -4 9 -7 -4
-11 2 -10 16 0 12 -3 42 -6 67 -6 39 -4 37 11 -16 16 -59 36 -94 52 -94 10 0
-12 83 -25 92 -5 4 -1 8 10 8 15 0 17 2 6 9 -8 5 -12 18 -8 30 4 15 0 21 -11
22 -10 1 -7 4 8 9 14 4 19 8 12 9 -9 1 -11 11 -6 36 5 30 3 35 -12 36 -15 0
-16 2 -4 7 22 10 23 50 2 55 -14 4 -14 5 -1 6 11 1 14 9 11 31 -5 34 -22 41
-22 9 0 -11 -4 -17 -10 -14 -5 3 -10 3 -11 -2 -4 -55 -8 -116 -14 -266 -7
-148 -11 -177 -22 -172 -8 3 -15 5 -16 5 -1 0 -1 71 1 157 4 192 2 203 -38
203 -17 0 -30 -5 -31 -12 0 -7 0 -91 1 -185 1 -168 1 -173 -19 -173 -21 0 -21
3 -15 178 4 102 12 194 20 216 7 22 11 43 8 48 -9 14 16 48 36 48 21 0 55 -43
46 -58 -2 -4 1 -30 9 -58 l14 -49 -1 70 c-1 39 -6 75 -11 82 -5 7 -6 16 -3 22
8 13 -18 21 -70 21 -41 0 -44 -2 -45 -27z m230 -487 c11 -13 11 -17 -2 -22 -9
-3 -26 -4 -39 -2 -18 2 -24 10 -26 36 l-3 33 29 -15 c15 -8 34 -22 41 -30z
m-265 19 c10 -26 -5 -45 -35 -45 -35 0 -39 22 -7 44 28 20 34 20 42 1z m68
-74 c-3 -28 -13 -48 -38 -72 -18 -18 -37 -30 -40 -26 -3 3 4 35 17 71 19 52
28 66 44 66 18 0 20 -5 17 -39z m286 14 c-11 -11 -99 -17 -135 -9 -34 8 -29 9
47 14 85 5 98 4 88 -5z m-349 1 c-10 -10 -108 -15 -135 -7 -22 7 -10 9 55 10
46 1 82 -1 80 -3z m-12 -33 c-7 -7 -139 -5 -146 3 -2 2 31 4 74 4 43 0 75 -3
72 -7z m298 -3 c-33 -4 -67 -3 -75 1 -9 5 17 8 60 7 l75 -1 -60 -7z"/>
<path d="M1640 2218 c0 -3 7 -23 16 -43 8 -21 19 -57 24 -79 l8 -41 1 36 c1
41 -15 97 -35 119 -8 8 -14 12 -14 8z"/>
<path d="M1486 2151 c-3 -5 10 -11 29 -13 27 -3 32 -1 23 9 -12 15 -44 17 -52
4z"/>
<path d="M1490 2105 c0 -8 9 -15 20 -15 11 0 20 7 20 15 0 8 -9 15 -20 15 -11
0 -20 -7 -20 -15z"/>
<path d="M207 1972 c-16 -17 -15 -20 8 -42 14 -13 26 -22 28 -19 1 2 10 13 20
25 16 20 16 22 -3 39 -17 16 -20 16 -20 2 0 -8 8 -18 18 -20 15 -4 15 -5 0 -6
-9 0 -19 -9 -21 -18 -4 -16 -5 -16 -6 -1 0 9 -9 19 -18 21 -17 4 -17 5 0 6 9
0 17 8 17 16 0 19 -3 19 -23 -3z"/>
<path d="M0 1918 c0 -16 4 -28 10 -28 12 0 34 -40 26 -47 -3 -3 -13 0 -22 8
-16 13 -16 12 -3 -8 7 -13 19 -25 26 -27 22 -9 15 46 -12 89 -24 39 -24 39
-25 13z"/>
<path d="M2796 1881 c-3 -5 -18 -12 -33 -16 -50 -12 -124 -119 -123 -177 1
-16 7 -7 20 26 22 55 87 128 140 156 21 11 28 19 18 20 -9 0 -19 -4 -22 -9z"/>
<path d="M2824 1866 c-51 -22 -115 -87 -140 -141 -28 -58 -32 -97 -5 -44 10
20 26 45 35 56 40 47 93 99 121 120 35 25 32 28 -11 9z"/>
<path d="M105 1845 c22 -13 57 -43 78 -67 21 -24 35 -34 31 -23 -9 27 -63 84
-96 101 -45 24 -56 15 -13 -11z"/>
<path d="M137 1764 c6 -10 8 -26 6 -34 -4 -13 -3 -13 5 -1 9 12 13 12 27 -3
18 -17 32 -15 21 3 -4 5 -20 20 -37 32 -28 20 -30 20 -22 3z"/>
<path d="M382 1763 c2 -10 10 -18 18 -18 22 0 18 29 -3 33 -14 3 -18 -1 -15
-15z"/>
<path d="M2804 1737 c-18 -12 -37 -31 -44 -42 -12 -19 -11 -19 11 1 13 12 40
31 59 43 19 11 28 21 20 20 -8 0 -29 -10 -46 -22z"/>
<path d="M2829 1722 c-24 -16 -53 -39 -64 -52 -25 -29 -5 -18 51 27 23 18 46
33 53 33 6 0 11 5 11 10 0 14 0 14 -51 -18z"/>
<path d="M5 1721 c-2 -4 11 -15 31 -24 19 -9 54 -35 79 -58 62 -58 70 -40 9
19 -48 45 -109 78 -119 63z"/>
<path d="M254 1689 c20 -23 24 -35 15 -38 -7 -2 -22 8 -33 22 l-21 26 0 -24
c0 -21 8 -28 47 -41 26 -8 50 -20 53 -25 9 -13 25 -11 25 3 0 20 -50 78 -82
94 l-32 17 28 -34z"/>
<path d="M2201 1697 c-8 -11 -6 -18 9 -32 20 -18 21 -18 40 1 13 13 17 24 10
34 -5 8 -13 11 -17 6 -4 -5 -2 -11 4 -13 10 -4 9 -8 -2 -20 -13 -13 -17 -13
-30 0 -11 12 -12 16 -2 20 6 2 9 7 6 11 -3 4 -11 0 -18 -7z"/>
<path d="M0 1665 c0 -8 5 -15 11 -15 6 0 38 -16 72 -36 58 -34 60 -34 37 -9
-14 15 -46 38 -72 51 -39 20 -48 21 -48 9z"/>
<path d="M2593 1630 c-52 -30 -84 -74 -82 -114 0 -17 3 -15 15 11 15 36 77
100 105 108 11 4 19 11 19 16 0 12 2 13 -57 -21z"/>
<path d="M272 1588 c41 -40 42 -42 20 -46 -13 -2 -30 2 -38 8 -9 8 -14 9 -14
2 0 -6 -8 -13 -17 -15 -10 -3 -4 -5 14 -6 17 0 59 -10 92 -20 l61 -19 -30 38
c-31 39 -83 82 -113 93 -9 4 2 -12 25 -35z"/>
<path d="M2635 1618 c-32 -17 -76 -61 -92 -91 -24 -46 -10 -51 22 -8 17 22 35
41 42 41 7 0 10 7 7 15 -4 9 0 15 8 15 8 0 23 9 33 20 20 22 11 26 -20 8z"/>
<path d="M348 1608 c-3 -7 11 -27 29 -46 19 -18 36 -47 40 -63 3 -16 9 -29 12
-29 16 0 93 -75 112 -109 l20 -36 -5 32 c-7 42 14 60 37 33 9 -11 17 -23 17
-26 0 -3 7 -12 15 -20 22 -23 19 4 -4 40 -24 36 -98 87 -116 80 -7 -3 -26 1
-42 10 l-28 15 27 1 c15 0 38 -4 53 -10 25 -10 25 -10 11 19 -17 32 -78 89
-110 100 -52 20 -64 21 -68 9z"/>
<path d="M2760 1560 c-6 -11 -23 -23 -38 -26 -45 -12 -100 -52 -118 -86 l-16
-33 38 36 c47 44 92 68 159 85 28 7 42 13 33 13 -9 1 -23 8 -32 16 -13 14 -16
13 -26 -5z"/>
<path d="M2959 1550 c-14 -11 -18 -19 -11 -20 19 0 52 19 52 30 0 16 -16 12
-41 -10z"/>
<path d="M0 1533 c0 -7 48 -33 94 -52 26 -11 -11 22 -44 39 -43 22 -50 24 -50
13z"/>
<path d="M2764 1516 c-61 -19 -133 -73 -163 -122 -18 -31 -33 -43 -49 -44 -28
0 -59 -15 -89 -42 -21 -20 -21 -20 -27 0 -9 27 10 71 47 110 35 36 26 40 -45
18 -94 -28 -196 -125 -218 -207 -9 -32 -18 -42 -57 -59 -50 -22 -83 -47 -83
-62 0 -5 8 -2 17 8 15 15 73 44 88 44 12 0 4 -69 -11 -80 -8 -8 -20 -22 -26
-33 -10 -19 -8 -19 21 2 24 17 31 30 31 54 0 71 112 180 190 187 40 4 52 1 44
-11 -3 -6 13 3 36 20 23 16 65 35 95 41 44 9 54 15 59 36 4 13 10 24 14 24 5
0 19 10 32 22 39 36 83 64 133 83 26 10 47 19 47 21 0 8 -46 2 -86 -10z m-334
-130 c0 -1 -5 -17 -11 -35 -8 -21 -19 -33 -37 -37 -15 -3 -36 -9 -47 -14 -11
-4 -29 -11 -39 -14 -17 -6 -17 -5 -5 11 24 31 36 41 74 67 33 23 65 34 65 22z"/>
<path d="M95 1510 c3 -5 18 -10 33 -10 45 0 126 -45 167 -91 21 -24 35 -35 31
-24 -12 34 -50 85 -68 91 -10 3 -18 9 -18 13 0 11 49 1 56 -10 3 -5 14 -9 25
-9 11 0 22 -7 25 -15 4 -8 15 -15 25 -15 10 0 19 -4 19 -10 0 -5 7 -10 15 -10
8 0 15 -4 15 -10 0 -5 7 -10 15 -10 13 0 56 -48 59 -66 0 -4 -23 -7 -52 -7
-29 1 -50 -3 -46 -8 3 -5 16 -9 28 -9 42 0 124 -32 161 -62 34 -28 84 -108 68
-108 -5 0 -18 18 -30 39 -21 36 -103 101 -127 101 -12 -1 23 -30 35 -30 4 0
11 -9 14 -20 4 -11 10 -18 15 -15 4 3 21 -10 36 -27 l27 -33 -29 -6 -29 -7 26
-1 c86 -4 193 -60 233 -122 9 -15 33 -31 54 -37 43 -13 118 -73 127 -101 3
-11 18 -22 33 -26 15 -3 50 -17 77 -29 28 -13 62 -26 78 -30 23 -6 27 -3 27
16 0 19 -24 35 -153 100 -83 43 -164 82 -179 88 -16 5 -28 14 -28 21 0 6 -13
24 -29 40 -16 15 -39 48 -50 73 -21 42 -82 96 -110 96 -7 0 -10 4 -7 9 9 14
-58 68 -93 76 -17 4 -31 11 -31 16 0 18 -84 100 -127 126 -70 41 -156 63 -244
63 -51 0 -78 -4 -74 -10z m632 -359 c2 -21 1 -21 -28 -4 -16 9 -29 25 -29 35
0 17 2 17 28 4 16 -8 28 -23 29 -35z"/>
<path d="M1730 1512 c0 -9 -7 -11 -19 -7 -28 8 -35 -39 -27 -168 5 -76 4 -98
-4 -87 -9 11 -10 -6 -6 -70 3 -47 6 -187 6 -312 0 -196 2 -228 15 -228 12 0
15 18 15 98 0 54 -4 102 -9 108 -5 5 -6 144 -2 329 l8 320 1 -241 c3 -394 13
-604 29 -604 11 0 13 76 13 423 0 255 -4 428 -10 437 -7 11 -10 12 -10 2z m7
-559 c-2 -32 -3 -8 -3 52 0 61 1 87 3 58 2 -29 2 -78 0 -110z"/>
<path d="M155 1465 c17 -14 34 -25 39 -25 4 0 30 -22 56 -50 26 -27 53 -50 59
-50 17 0 -1 29 -41 66 -48 44 -60 52 -104 69 l-39 16 30 -26z"/>
<path d="M578 1448 c18 -13 41 -36 52 -53 11 -16 20 -25 20 -18 0 17 -74 93
-91 93 -7 0 1 -10 19 -22z"/>
<path d="M2382 1445 c-33 -14 -100 -65 -87 -65 4 0 20 9 35 20 16 11 48 29 72
40 24 11 36 19 28 19 -8 0 -30 -6 -48 -14z"/>
<path d="M1760 1147 c0 -152 3 -277 6 -277 4 0 45 22 93 49 47 27 103 55 124
62 20 7 37 16 37 20 0 11 -82 -12 -110 -31 -67 -45 -123 -71 -131 -59 -4 6 -7
122 -7 256 1 134 -2 246 -6 250 -3 3 -6 -118 -6 -270z"/>
<path d="M22 1383 c16 -16 40 -27 61 -29 46 -4 104 -34 141 -73 17 -17 39 -31
50 -31 29 0 95 -40 117 -70 11 -14 20 -38 22 -55 7 -54 37 -92 79 -99 39 -6
103 -54 112 -84 4 -10 18 -18 36 -19 43 -3 107 -41 130 -78 18 -28 20 -28 20
-7 0 12 -5 22 -12 22 -6 0 -8 3 -5 6 8 8 -85 80 -97 76 -21 -7 -55 9 -71 34
-9 15 -12 23 -6 20 6 -4 11 -5 11 -1 0 6 -90 48 -127 59 -12 4 -28 23 -36 44
-17 42 -12 63 8 35 7 -10 16 -15 20 -11 19 19 -104 129 -171 153 -27 10 -58
26 -69 35 -31 27 -83 51 -164 76 l-74 23 25 -26z"/>
<path d="M0 1373 c0 -7 10 -23 22 -35 l22 -22 -23 -6 c-22 -5 -21 -7 18 -25
24 -10 56 -35 73 -54 26 -31 29 -33 23 -12 -4 14 -26 44 -49 67 -22 23 -51 55
-63 70 -12 16 -22 23 -23 17z"/>
<path d="M2750 1343 c-29 -19 -70 -61 -70 -70 0 -4 12 5 28 19 15 14 43 35 62
47 19 11 28 21 20 21 -9 0 -27 -8 -40 -17z"/>
<path d="M2813 1345 c-41 -17 -120 -90 -140 -128 -8 -16 -17 -27 -19 -24 -3 3
2 19 11 36 9 17 11 31 5 31 -5 0 -10 -6 -10 -14 0 -8 -22 -37 -50 -65 -27 -28
-50 -59 -51 -69 0 -13 -2 -12 -9 6 -10 23 -25 29 -35 12 -3 -6 1 -7 9 -4 9 3
16 2 16 -4 0 -6 -6 -13 -12 -15 -8 -3 -6 -6 5 -6 9 -1 17 -8 17 -18 0 -10 11
-1 29 23 51 71 108 104 176 104 19 0 35 4 35 9 0 21 58 75 102 96 37 17 45 24
32 29 -30 11 -118 -39 -135 -76 -10 -24 -21 -34 -43 -36 l-28 -4 18 30 c16 28
82 74 113 78 7 2 18 7 24 13 16 16 -21 13 -60 -4z"/>
<path d="M1373 1115 c-1 -132 2 -249 6 -260 5 -11 11 78 16 208 4 125 5 231 1
234 -3 4 -7 -43 -8 -103 l-2 -109 -6 135 c-5 117 -6 102 -7 -105z"/>
<path d="M125 1315 c22 -15 51 -39 65 -53 14 -13 43 -32 65 -42 45 -20 115
-78 115 -96 0 -10 21 -24 36 -24 2 0 -1 12 -7 28 -16 42 -58 80 -108 99 -25 9
-53 22 -62 30 -9 7 -19 10 -22 6 -4 -3 -7 1 -7 10 0 16 -48 50 -90 62 -18 5
-15 0 15 -20z"/>
<path d="M2515 1308 c-22 -11 -51 -30 -65 -43 -14 -12 -46 -35 -73 -50 -49
-28 -110 -92 -104 -110 2 -5 -21 -24 -52 -41 -30 -17 -57 -36 -59 -43 -3 -10
0 -10 16 0 21 13 46 4 26 -9 -6 -4 -13 -15 -17 -24 -6 -16 -24 -23 -49 -19 -4
0 -28 -8 -53 -19 -47 -20 -58 -17 -27 6 30 24 -26 1 -137 -57 -91 -48 -101
-56 -101 -81 l0 -28 38 16 c20 9 57 24 82 33 25 9 61 28 80 42 54 41 96 59
137 61 33 1 41 6 65 45 32 50 103 99 159 108 21 4 39 11 39 17 0 7 -15 8 -42
3 -78 -13 -88 -13 -88 -1 0 14 62 75 100 98 14 8 40 19 58 22 25 6 32 4 32 -8
0 -22 18 -30 36 -15 10 8 12 15 4 23 -21 21 -10 46 30 66 22 11 40 23 40 25 0
11 -38 3 -75 -17z m-485 -383 c0 -14 -45 -47 -83 -61 -23 -9 -54 -22 -69 -30
-16 -8 -28 -11 -28 -6 0 4 34 26 76 48 42 21 78 42 80 47 6 8 24 10 24 2z"/>
<path d="M658 1275 c25 -25 49 -45 53 -45 5 0 25 -16 45 -36 21 -22 32 -28 25
-16 -6 12 -23 29 -37 39 -15 10 -47 37 -71 61 -60 56 -73 54 -15 -3z"/>
<path d="M785 1301 c33 -20 76 -65 93 -96 6 -11 12 -15 12 -9 1 33 -91 124
-124 124 -6 0 3 -8 19 -19z"/>
<path d="M2862 1280 c-46 -33 -58 -53 -15 -24 31 20 70 54 61 54 -3 0 -24 -14
-46 -30z"/>
<path d="M760 1290 c0 -5 4 -10 10 -10 5 0 30 -21 56 -47 26 -27 42 -39 36
-27 -11 20 -87 94 -97 94 -3 0 -5 -4 -5 -10z"/>
<path d="M1260 1251 c0 -39 -3 -49 -16 -47 -25 2 -29 -24 -6 -31 13 -3 22 -15
25 -32 2 -14 5 16 6 67 0 50 -1 92 -4 92 -3 0 -5 -22 -5 -49z"/>
<path d="M0 1282 c0 -5 16 -17 35 -27 19 -11 32 -21 30 -23 -2 -3 7 -14 21
-24 32 -26 40 -18 15 13 -21 27 -101 75 -101 61z"/>
<path d="M2931 1229 c-28 -11 -50 -37 -51 -59 0 -9 6 -6 16 9 9 13 35 32 58
42 42 19 22 26 -23 8z"/>
<path d="M2943 1200 c-17 -10 -37 -29 -43 -41 -10 -17 -9 -20 2 -13 9 6 9 2
-2 -12 -8 -10 -18 -21 -21 -24 -3 -3 -11 -15 -18 -27 -7 -13 -21 -23 -34 -23
-16 0 -18 -3 -8 -9 9 -6 10 -10 2 -16 -7 -4 -18 -2 -25 4 -17 14 -90 -56 -105
-102 -9 -25 -22 -38 -52 -51 -23 -10 -51 -29 -62 -42 -15 -18 -31 -24 -60 -24
-46 0 -126 -40 -146 -73 l-14 -22 24 21 c39 35 88 55 140 58 37 2 54 9 75 29
15 15 43 32 64 38 28 9 40 19 49 44 16 44 72 92 116 101 27 5 39 14 51 40 17
36 53 67 98 84 14 5 26 16 26 25 0 14 -3 14 -25 -1 -23 -15 -45 -12 -45 6 0 4
10 6 22 2 15 -4 19 -2 14 7 -5 7 0 18 10 26 28 21 4 18 -33 -5z"/>
<path d="M2668 1170 c-35 -19 -98 -85 -98 -104 0 -5 18 12 41 38 22 25 46 46
52 46 7 0 23 9 37 20 32 25 16 25 -32 0z"/>
<path d="M0 1160 c0 -5 7 -10 16 -10 29 0 95 -43 115 -76 12 -20 30 -34 50
-38 17 -3 44 -15 60 -27 29 -21 69 -85 69 -112 0 -9 14 -17 34 -21 19 -4 46
-16 60 -27 14 -11 30 -18 34 -15 15 9 80 -14 111 -39 42 -36 58 -31 18 5 -19
16 -37 30 -40 30 -3 0 -27 10 -54 22 -26 11 -52 22 -58 23 -56 8 -95 45 -95
90 0 8 -4 15 -8 15 -7 0 -20 19 -40 63 -5 11 32 -8 50 -26 71 -69 119 -108
110 -92 -28 53 -137 136 -204 156 -27 7 -50 -5 -26 -14 8 -4 7 -6 -3 -6 -10
-1 -30 15 -45 35 -40 49 -154 97 -154 64z"/>
<path d="M188 1157 c19 -6 52 -28 74 -49 22 -21 46 -38 53 -38 23 0 124 -100
137 -136 15 -42 32 -45 23 -4 -7 31 -3 34 27 22 24 -10 68 -71 62 -87 -3 -7 2
-15 12 -19 14 -5 15 -2 9 21 -10 43 -49 87 -92 107 -28 12 -43 27 -52 51 -7
19 -25 44 -41 55 -31 22 -56 27 -27 6 12 -9 14 -16 8 -21 -6 -3 -11 -1 -11 5
0 7 -7 10 -15 6 -8 -3 -15 -2 -15 3 0 5 -13 14 -29 21 -16 6 -32 18 -35 26 -7
18 -67 44 -98 43 -18 -1 -16 -3 10 -12z"/>
<path d="M1450 939 c0 -154 4 -229 10 -219 9 14 3 439 -6 449 -2 2 -4 -101 -4
-230z"/>
<path d="M1562 1014 c-1 -83 -5 -180 -8 -215 -4 -48 -3 -60 6 -47 7 11 9 85 7
215 -2 187 -3 190 -5 47z"/>
<path d="M175 1134 c11 -8 19 -20 18 -25 -2 -5 6 -9 16 -9 11 0 27 -3 37 -7
32 -12 4 16 -36 37 -46 24 -63 26 -35 4z"/>
<path d="M796 1135 c4 -10 19 -15 48 -14 l41 1 -35 13 c-47 18 -61 18 -54 0z"/>
<path d="M1637 1133 c-4 -3 -6 -70 -6 -147 1 -85 4 -127 9 -106 4 19 6 83 6
143 -1 63 3 109 9 111 6 3 6 5 -1 5 -6 1 -14 -2 -17 -6z"/>
<path d="M958 1073 c65 -43 71 -49 53 -57 -22 -9 -28 -26 -11 -26 15 0 128
-54 178 -85 23 -14 42 -22 42 -17 0 10 -41 37 -110 75 -36 19 -70 52 -70 69 0
5 5 6 11 2 18 -10 -6 28 -30 50 -12 11 -23 17 -26 14 -3 -3 6 -13 20 -22 14
-9 25 -21 25 -27 0 -5 -15 1 -32 14 -40 30 -92 57 -110 57 -7 0 20 -21 60 -47z"/>
<path d="M2784 1110 c-22 -9 -61 -60 -45 -60 5 0 11 7 14 15 3 7 23 23 44 34
37 20 28 28 -13 11z"/>
<path d="M560 1101 c0 -5 -8 -12 -17 -14 -10 -2 -8 -3 5 -2 12 1 22 -1 22 -5
0 -4 11 -11 25 -14 14 -4 43 -24 65 -46 41 -41 52 -42 24 -2 -8 12 -12 22 -7
22 11 0 65 -58 88 -92 9 -16 22 -28 29 -28 8 0 8 2 0 8 -6 4 -15 18 -19 31
-11 37 -75 100 -127 127 -49 25 -88 31 -88 15z"/>
<path d="M1259 1008 c-1 -57 -1 -107 0 -112 1 -5 -5 -4 -13 3 -12 10 -13 9 -8
-11 3 -13 12 -29 19 -36 11 -11 13 10 13 122 0 75 -2 136 -5 136 -3 0 -6 -46
-6 -102z"/>
<path d="M2030 1090 c-19 -10 -44 -28 -55 -40 l-20 -23 40 21 c50 26 82 49 75
55 -3 3 -21 -3 -40 -13z"/>
<path d="M530 1059 c0 -5 4 -8 9 -5 5 4 11 2 13 -4 2 -6 14 -12 27 -15 14 -2
42 -19 64 -36 30 -24 37 -27 28 -11 -14 26 -56 55 -100 70 -41 15 -41 15 -41
1z"/>
<path d="M2331 1039 c-24 -16 -55 -50 -69 -75 -17 -27 -37 -46 -52 -50 -14 -3
-55 -20 -92 -36 -59 -27 -66 -33 -57 -49 5 -11 17 -18 27 -18 16 1 16 2 0 6
-10 2 -18 9 -18 15 0 5 7 8 15 4 9 -3 15 0 15 8 0 8 14 19 30 25 20 6 30 7 30
0 0 -6 5 -7 11 -3 6 3 14 2 18 -3 3 -6 18 -2 36 10 17 10 22 16 13 13 -54 -18
-54 -18 -33 -2 10 9 33 20 50 25 38 10 105 51 84 51 -8 0 -24 -7 -35 -15 -26
-20 -33 -19 -27 5 5 20 54 73 94 102 13 9 19 17 13 18 -6 0 -30 -14 -53 -31z"/>
<path d="M1526 1014 c-9 -68 -7 -232 3 -238 4 -3 9 60 10 139 1 80 0 145 -2
145 -2 0 -7 -21 -11 -46z"/>
<path d="M1494 905 c0 -66 1 -92 3 -57 2 34 2 88 0 120 -2 31 -3 3 -3 -63z"/>
<path d="M2617 1010 c-52 -10 -114 -56 -144 -107 -31 -53 -17 -57 16 -4 27 44
90 88 138 97 18 3 33 10 33 15 0 5 -1 8 -2 8 -2 -1 -20 -5 -41 -9z"/>
<path d="M2430 980 c-40 -26 -58 -48 -59 -75 -1 -5 11 5 25 23 26 32 66 58
114 73 24 7 24 7 -5 7 -16 1 -50 -12 -75 -28z"/>
<path d="M2795 981 c-41 -25 -68 -57 -62 -73 4 -9 6 -8 6 3 1 19 35 51 76 72
17 9 26 16 20 17 -5 0 -23 -8 -40 -19z"/>
<path d="M0 980 c0 -11 41 -30 51 -24 4 2 14 -5 24 -16 17 -19 16 -19 -31 -15
l-49 5 43 -20 c24 -11 50 -33 60 -50 11 -19 25 -30 39 -30 30 0 74 -18 98 -39
11 -10 38 -21 60 -24 l40 -5 -35 16 c-19 9 -43 25 -54 34 -10 9 -39 22 -65 29
-29 7 -53 21 -65 38 l-20 26 22 -19 c12 -11 25 -16 28 -13 4 3 14 2 24 -3 9
-5 29 -11 45 -14 38 -7 115 -39 115 -48 0 -5 7 -8 16 -8 15 0 105 -46 114 -59
3 -4 55 -24 115 -45 111 -39 297 -118 291 -123 -2 -2 -14 0 -27 5 -35 13 -85
24 -78 18 16 -17 356 -122 365 -114 2 3 -15 10 -37 17 -23 7 -83 31 -133 53
-50 22 -158 68 -241 103 -82 34 -230 101 -327 149 -98 47 -189 86 -202 86 -16
0 -40 15 -65 40 -49 50 -121 79 -121 50z"/>
<path d="M2490 979 c-32 -13 -90 -58 -90 -70 0 -5 14 3 30 18 17 15 37 28 45
29 16 2 64 34 50 33 -6 0 -21 -5 -35 -10z"/>
<path d="M2954 976 c-17 -8 -44 -30 -60 -50 -19 -23 -37 -36 -53 -36 -13 0
-134 -49 -270 -109 -135 -59 -339 -148 -453 -196 -114 -49 -206 -90 -204 -92
11 -11 406 117 406 131 0 4 -60 -13 -118 -34 -38 -14 -53 -8 -19 7 12 6 33 15
47 22 14 6 84 31 155 56 72 25 131 49 133 54 2 6 10 7 19 4 10 -4 14 -2 10 4
-10 16 9 27 88 52 39 13 79 29 90 35 11 7 34 17 50 21 17 4 36 10 43 12 6 1
20 5 30 7 9 3 19 5 22 6 3 1 8 2 13 1 4 0 7 3 7 9 0 6 5 10 10 10 7 0 7 -6 0
-20 -6 -11 -19 -20 -30 -20 -22 0 -65 -17 -100 -41 -30 -20 -100 -44 -117 -41
-7 2 -13 -1 -13 -7 0 -5 -6 -11 -12 -14 -20 -7 12 0 67 13 28 7 57 16 65 21
45 28 103 50 118 45 11 -3 23 5 37 27 11 18 35 39 52 47 28 13 33 20 33 53 0
41 -2 42 -46 23z"/>
<path d="M2530 924 c-22 -20 -39 -38 -37 -40 2 -2 23 14 47 36 24 22 40 40 37
40 -4 0 -25 -16 -47 -36z"/>
<path d="M1773 833 c-7 -2 -13 -17 -13 -33 0 -23 3 -27 20 -23 14 4 20 14 20
34 0 29 -4 32 -27 22z"/>
<path d="M1242 803 c4 -39 28 -42 28 -4 0 21 -5 31 -16 31 -11 0 -14 -8 -12
-27z"/>
<path d="M1777 763 c-3 -5 -8 -30 -12 -57 -7 -44 -6 -49 9 -43 10 4 20 7 22 7
2 0 4 23 4 50 0 45 -10 64 -23 43z"/>
<path d="M620 758 c16 -17 372 -178 381 -173 12 8 147 -23 154 -35 3 -5 -9 -5
-27 1 -60 17 -54 7 7 -12 72 -22 85 -23 85 -6 0 8 -17 21 -37 29 -21 9 -111
45 -200 82 -89 36 -167 66 -172 66 -6 0 -8 -7 -4 -16 5 -14 3 -15 -17 -4 -18
10 -20 14 -9 22 11 8 10 8 -4 4 -11 -3 -24 -3 -30 1 -7 5 -30 13 -52 19 -22 6
-49 15 -60 19 -11 5 -18 6 -15 3z m236 -76 c5 -5 42 -21 82 -36 40 -16 71 -31
68 -33 -14 -14 -165 42 -181 67 -7 12 17 14 31 2z"/>
<path d="M1251 746 c-16 -19 -10 -148 7 -154 9 -3 12 18 12 82 0 47 -2 86 -4
86 -2 0 -9 -6 -15 -14z"/>
<path d="M1822 721 c-2 -31 2 -42 11 -39 6 3 42 15 80 28 37 13 67 27 67 31 0
4 -19 0 -42 -11 -24 -10 -57 -21 -75 -25 -30 -6 -32 -5 -36 27 -3 29 -4 27 -5
-11z"/>
<path d="M892 731 c26 -10 64 -29 85 -41 22 -12 30 -15 18 -5 -26 22 -116 65
-135 64 -8 0 6 -8 32 -18z"/>
<path d="M1195 713 c0 -32 -3 -38 -20 -35 -17 2 -16 0 5 -12 37 -23 40 -20 40
34 0 33 -4 50 -12 50 -8 0 -13 -14 -13 -37z"/>
<path d="M1290 678 c0 -45 3 -58 15 -58 12 0 15 13 15 58 0 46 -3 59 -15 59
-12 0 -15 -13 -15 -59z"/>
<path d="M380 697 c3 -3 57 -25 121 -50 121 -47 265 -116 312 -149 15 -11 32
-18 38 -16 11 4 -88 78 -103 78 -4 0 -41 16 -82 35 -42 19 -79 35 -84 35 -4 0
-38 13 -77 28 -67 28 -135 49 -125 39z"/>
<path d="M2590 690 c-14 -4 -59 -22 -100 -39 -41 -17 -79 -31 -84 -31 -20 0
-243 -116 -258 -134 -24 -30 -14 -32 24 -3 44 33 124 72 288 141 180 76 176
75 165 74 -5 0 -21 -3 -35 -8z"/>
<path d="M1833 643 c-19 -7 -18 -123 1 -123 11 0 13 11 9 50 -3 32 0 56 7 65
12 15 6 18 -17 8z"/>
<path d="M1729 635 c-1 -6 -3 -41 -5 -78 -2 -50 0 -67 9 -64 15 5 22 126 8
140 -7 7 -11 7 -12 2z"/>
<path d="M1775 624 c-10 -4 -11 -114 -1 -114 3 0 11 0 16 0 6 0 10 27 10 60 0
58 -3 64 -25 54z"/>
<path d="M2570 596 c-112 -39 -208 -82 -268 -120 -77 -48 -39 -38 85 24 67 33
158 74 204 90 79 30 104 41 83 39 -5 0 -52 -15 -104 -33z"/>
<path d="M420 593 c75 -29 157 -68 250 -118 74 -39 97 -44 60 -13 -33 28 -185
99 -282 132 -97 33 -113 33 -28 -1z"/>
<path d="M1290 576 c0 -41 15 -56 24 -23 10 37 7 57 -9 57 -10 0 -15 -10 -15
-34z"/>
<path d="M0 393 c0 -5 195 -8 432 -7 341 1 389 -1 228 -6 -113 -4 -307 -8
-432 -9 -196 -1 -228 -3 -228 -16 0 -13 24 -14 188 -9 192 7 345 -1 307 -17
-33 -13 21 -11 165 7 97 12 142 13 177 6 56 -12 70 -7 22 7 -43 12 -8 14 44 2
20 -5 37 -6 37 -2 0 8 153 29 226 31 28 0 64 5 80 10 17 5 -229 9 -608 9 -351
1 -638 -2 -638 -6z"/>
<path d="M1710 392 c8 -3 18 -10 23 -16 4 -7 10 -8 15 -1 4 6 26 7 52 4 25 -3
35 -7 22 -7 -13 -1 -20 -6 -17 -12 8 -12 46 -3 57 13 4 8 48 5 142 -7 75 -10
133 -22 131 -26 -3 -4 14 -4 37 2 44 9 93 6 286 -18 140 -17 204 -17 115 0
-35 7 -66 16 -70 19 -3 4 107 5 245 3 211 -3 252 -2 252 10 0 11 -32 14 -178
14 -99 0 -268 3 -378 8 l-199 7 380 5 c325 5 285 6 -275 7 -360 0 -648 -1
-640 -5z"/>
<path d="M1546 299 c23 -73 83 -245 101 -289 4 -10 9 -1 14 23 8 33 4 47 -31
118 -23 44 -38 85 -34 91 4 7 3 8 -4 4 -7 -4 -12 -4 -13 1 0 4 -2 16 -4 26 -2
9 1 17 6 17 5 0 9 -5 9 -12 0 -6 3 -8 6 -5 9 9 44 -32 44 -51 0 -8 -6 -12 -15
-8 -11 4 -8 -8 10 -44 29 -58 40 -64 31 -18 l-6 32 32 -29 c18 -17 60 -58 93
-92 33 -35 68 -63 78 -63 19 0 -154 199 -282 324 l-61 60 26 -85z"/>
<path d="M1287 275 c-167 -106 -337 -223 -337 -231 0 -3 19 5 43 19 52 30 162
87 170 87 3 0 -21 -28 -54 -62 -108 -114 -61 -92 72 33 72 68 161 152 197 186
37 34 65 62 62 62 -3 1 -72 -42 -153 -94z"/>
<path d="M1385 287 c-167 -170 -267 -287 -248 -287 11 0 54 35 95 78 42 42 86
85 97 95 21 17 21 17 15 -10 -4 -16 -11 -33 -16 -40 -6 -7 -8 -17 -6 -22 1 -5
20 22 41 62 25 47 32 65 19 54 -17 -15 -20 -16 -25 -3 -7 17 49 80 63 71 11
-7 3 -29 -43 -122 -24 -47 -35 -83 -35 -115 -1 -27 2 -48 6 -48 4 0 32 73 61
162 30 90 58 173 63 186 4 12 4 22 0 21 -4 0 -43 -37 -87 -82z"/>
<path d="M1490 364 c0 -5 -18 -87 -40 -183 -23 -96 -38 -176 -35 -179 10 -11
22 13 40 81 9 37 25 75 33 84 14 14 17 13 29 -3 16 -22 47 -121 45 -146 0 -10
6 -18 14 -18 8 0 14 6 14 13 0 29 -79 340 -89 350 -6 6 -11 7 -11 1z m29 -134
c0 -14 -3 -20 -5 -13 -3 7 -12 9 -20 6 -17 -6 -19 28 -2 45 15 15 28 -2 27
-38z"/>
<path d="M1875 354 l-30 -14 35 6 c19 3 42 10 50 15 27 15 -22 9 -55 -7z"/>
<path d="M1588 354 c-3 -3 35 -44 86 -92 50 -48 130 -125 178 -171 95 -91 126
-103 58 -21 -23 28 -40 53 -37 56 3 3 44 -15 92 -40 47 -25 89 -46 92 -46 9 0
-66 53 -246 172 -170 114 -200 136 -168 125 11 -4 16 -3 12 4 -4 6 -14 8 -22
5 -9 -4 -21 -2 -28 4 -6 5 -14 7 -17 4z"/>
<path d="M1910 341 c-23 -7 -22 -8 14 -15 21 -4 41 -5 44 -2 3 3 -6 6 -19 7
-22 0 -23 1 -4 9 24 11 1 11 -35 1z"/>
<path d="M1290 313 c-318 -150 -496 -240 -488 -249 2 -2 37 12 77 32 40 19 80
33 88 30 8 -3 11 -1 8 4 -3 6 -1 10 4 10 20 0 11 -21 -21 -51 -52 -47 -27 -34
86 45 58 40 147 100 198 131 131 82 140 91 48 48z"/>
<path d="M1729 330 c-6 -4 29 -24 78 -45 48 -20 156 -73 239 -116 83 -43 155
-79 160 -79 5 0 -4 12 -21 26 l-30 26 30 -8 c17 -4 35 -9 40 -13 17 -10 110
-40 113 -36 7 7 -399 172 -536 217 -70 23 -78 36 -11 18 54 -15 306 -112 453
-175 112 -48 145 -55 76 -16 -22 12 -40 24 -40 26 0 2 23 -3 51 -11 28 -9 53
-13 56 -11 8 9 -287 108 -506 170 -48 14 -67 23 -56 27 10 3 -6 6 -34 6 -28 0
-56 -3 -62 -6z"/>
<path d="M705 321 c21 -4 -38 -16 -193 -40 -248 -37 -278 -43 -274 -60 1 -6
-4 -11 -12 -11 -18 0 -149 -40 -144 -45 1 -2 41 5 88 15 47 11 206 46 355 78
229 50 263 60 230 65 -51 9 -91 7 -50 -2z"/>
<path d="M1260 323 c-230 -83 -539 -206 -579 -229 -15 -9 -18 -12 -6 -8 11 3
51 17 88 30 89 31 100 30 54 -3 -20 -14 -36 -27 -35 -29 2 -1 100 46 218 105
118 59 233 114 255 123 36 15 41 24 5 11z"/>
<path d="M1670 326 c0 -2 33 -23 72 -47 40 -24 125 -80 188 -125 135 -94 157
-107 113 -66 -28 27 -29 31 -12 35 10 3 40 -5 67 -18 26 -12 58 -26 72 -29 47
-14 -38 34 -242 134 -180 89 -258 124 -258 116z"/>
<path d="M2000 322 c-42 -8 461 -132 555 -137 44 -2 95 -8 113 -14 18 -5 35
-10 37 -9 3 0 37 -6 76 -12 39 -7 72 -10 75 -7 11 11 -548 132 -570 123 -6 -2
0 -5 13 -5 13 -1 22 -4 19 -7 -3 -3 -23 -2 -44 2 -33 6 -36 8 -19 16 13 5 4 6
-25 3 -35 -4 -40 -3 -25 5 17 9 17 10 -7 5 -38 -7 -93 5 -76 17 9 6 6 7 -9 3
-31 -9 -99 5 -81 16 14 9 9 9 -32 1z"/>
<path d="M2255 322 c-30 -4 165 -52 504 -123 151 -32 201 -34 82 -3 -39 10
-71 22 -71 26 0 4 -7 8 -15 8 -8 0 -23 4 -33 10 -15 9 -366 68 -423 71 -18 1
-15 3 11 9 33 7 34 7 5 7 -16 0 -43 -2 -60 -5z"/>
<path d="M1165 315 c-5 -2 -57 -18 -115 -35 -178 -53 -444 -142 -455 -151 -5
-5 13 -3 40 6 69 21 86 19 56 -5 -13 -11 -21 -20 -19 -20 2 0 41 16 88 35 65
28 321 127 430 168 13 5 13 5 0 5 -8 0 -19 -1 -25 -3z"/>
<path d="M915 299 c-22 -6 -51 -7 -65 -4 -20 4 -22 3 -10 -6 12 -8 7 -9 -20
-5 -27 5 -31 3 -20 -5 11 -8 7 -9 -20 -5 -27 5 -31 3 -20 -5 12 -8 8 -9 -17
-5 -47 8 -595 -102 -617 -124 -5 -5 -1 -7 10 -5 113 25 304 55 346 54 36 -1
128 19 283 59 127 33 221 60 210 60 -11 0 -38 -4 -60 -9z"/>
<path d="M830 251 c-319 -82 -418 -114 -255 -81 51 11 56 5 14 -15 -19 -8 -25
-13 -14 -9 71 20 501 157 504 160 12 10 -43 -2 -249 -55z"/>
<path d="M2065 263 c77 -25 196 -64 265 -88 68 -24 126 -42 128 -41 1 2 -17
13 -40 25 l-43 21 35 -5 c19 -4 47 -11 62 -17 14 -5 35 -8 45 -6 26 5 -547
160 -582 157 -5 0 53 -21 130 -46z"/>
<path d="M2575 285 c235 -37 233 -37 211 -24 -18 11 -298 50 -341 48 -11 -1
48 -12 130 -24z"/>
<path d="M325 283 c-65 -7 -121 -16 -124 -18 -14 -15 22 -13 160 9 170 26 150
32 -36 9z"/>
</g>
</svg>
